<?xml version="1.0" encoding="UTF-8"?>
<svg id="Camada_2" data-name="Camada 2" xmlns="http://www.w3.org/2000/svg" viewBox="0 0 23.07 20.7">
  <defs>
    <style>
      .cls-1 {
        fill: #010101;
      }
    </style>
  </defs>
  <g id="Camada_1-2" data-name="Camada 1">
    <g>
      <path class="cls-1" d="M11.86.82c.59,1.13.96,2.04.96,2.34,0,.53-.43.96-.96.96s-.96-.43-.96-.96c0-.3.37-1.21.96-2.34M11.86,4.81c.91,0,1.64-.74,1.64-1.64,0-.58-.63-1.88-1.15-2.87-.1-.18-.28-.3-.49-.3s-.4.11-.49.3c-.53.99-1.15,2.29-1.15,2.87,0,.91.74,1.64,1.64,1.64"/>
      <path class="cls-1" d="M19.9,12.62c-.27,0-.54-.06-.79-.15-.15-1.33-.65-2.55-1.41-3.57.02-.03.04-.05.05-.09.38-1.06,1.07-2.53,2.04-4.38.03-.06.09-.07.12-.07h0s.08,0,.11.07c1.14,2.14,2.37,4.77,2.37,5.69,0,1.37-1.11,2.48-2.48,2.48M11.77,20.02c-3.13,0-5.88-2.22-6.55-5.28,0,0,0,0,0,0-.1-.48-.15-.96-.15-1.43,0-2.16,1.05-4.2,2.8-5.46,0,0,0,0,0,0,1.13-.82,2.47-1.25,3.89-1.25,3.7,0,6.71,3.01,6.71,6.71s-3.01,6.71-6.71,6.71M4.46,14.49c-2.08,0-3.78-1.7-3.78-3.78,0-1.16,1.27-4.22,3.47-8.38.09-.17.24-.19.31-.19s.22.02.31.19c1.06,2.01,1.9,3.73,2.49,5.13-1.8,1.39-2.87,3.56-2.87,5.85,0,.39.03.79.1,1.19h-.03ZM20.62,4.13c-.14-.27-.42-.43-.72-.43h0c-.3,0-.57.17-.72.43-.91,1.73-1.57,3.13-1.97,4.2-1.35-1.48-3.29-2.41-5.44-2.41-1.42,0-2.78.4-3.94,1.15-.6-1.4-1.42-3.08-2.46-5.05-.18-.34-.53-.55-.91-.55h0c-.38,0-.73.21-.91.55C1.93,5.07,0,9.07,0,10.71c0,2.46,2,4.46,4.46,4.46.06,0,.12,0,.17-.01.84,3.22,3.79,5.53,7.14,5.53,4.08,0,7.39-3.32,7.39-7.39,0-.03,0-.07,0-.1.24.06.49.1.75.1,1.74,0,3.16-1.42,3.16-3.16,0-1.24-1.53-4.3-2.44-6.01"/>
      <path class="cls-1" d="M9.04,18.01c-.16-.1-.37-.03-.46.12-.1.16-.04.37.12.47.06.03.11.05.17.05.12,0,.23-.06.29-.17.1-.16.04-.37-.12-.47"/>
      <path class="cls-1" d="M7.14,9.83c-.16-.1-.37-.06-.47.1-.1.16-.06.37.1.47.06.04.12.06.19.06.11,0,.22-.06.29-.16.1-.16.05-.37-.1-.47"/>
      <path class="cls-1" d="M6.75,16.18c-.16.1-.2.31-.1.48h0c.07.1.18.15.29.15.07,0,.13-.02.18-.05.16-.1.2-.31.1-.47-.1-.16-.31-.2-.47-.1"/>
      <path class="cls-1" d="M7.54,17.27c-.13.14-.12.35.01.48.07.06.15.09.23.09.1,0,.18-.03.25-.1.13-.14.12-.35-.01-.48-.14-.13-.35-.12-.48.01"/>
      <path class="cls-1" d="M7.59,8.85c-.14.12-.14.34-.02.48.07.08.16.11.25.11.08,0,.17-.03.23-.1.14-.13.14-.34.01-.48-.12-.14-.34-.14-.48-.01"/>
      <path class="cls-1" d="M6.65,15.15c-.06-.18-.26-.27-.44-.2-.18.06-.27.26-.21.44.06.14.18.22.32.22.04,0,.08,0,.12-.02.18-.07.27-.26.2-.44"/>
      <path class="cls-1" d="M15.99,9.33c-.14.12-.16.33-.04.48.07.08.16.12.26.12.08,0,.16-.03.22-.08.14-.12.16-.34.04-.48-.12-.14-.33-.16-.48-.04"/>
      <path class="cls-1" d="M12.73,7.95s.04,0,.06,0c.16,0,.31-.12.33-.28.03-.19-.09-.37-.28-.39-.18-.03-.36.09-.39.27-.03.18.09.36.27.39"/>
      <path class="cls-1" d="M10.13,8.1s.07,0,.1-.01c.18-.06.29-.24.23-.42-.06-.18-.24-.29-.42-.23-.18.06-.29.25-.23.42.05.15.18.25.33.25"/>
      <path class="cls-1" d="M11.45,7.87h.02c.18,0,.33-.17.32-.36,0-.18-.17-.33-.36-.32-.18.01-.33.17-.32.36.01.18.16.32.34.32"/>
      <path class="cls-1" d="M6.23,11.63s.08.02.12.02c.14,0,.27-.08.32-.22.06-.18-.03-.37-.2-.44-.18-.06-.37.03-.44.2-.07.18.03.37.2.44"/>
      <path class="cls-1" d="M5.99,12.95s.03,0,.04,0c.17,0,.32-.13.34-.3.02-.19-.11-.36-.3-.38-.18-.02-.35.11-.38.3-.02.18.12.35.3.37"/>
      <path class="cls-1" d="M6.07,14.3c.18-.02.32-.19.3-.37-.02-.18-.19-.32-.37-.3-.18.02-.32.19-.3.37.02.18.17.31.34.31,0,0,.02,0,.03,0"/>
      <path class="cls-1" d="M17.48,14.34c-.18-.05-.37.07-.41.24h0c-.05.18.07.37.25.42.03,0,.05,0,.08,0,.16,0,.29-.1.33-.26.05-.18-.07-.37-.25-.41"/>
      <path class="cls-1" d="M15.93,16.82c-.12.15-.11.36.03.48.07.05.14.08.22.08.1,0,.19-.04.26-.12.12-.14.1-.35-.04-.48-.14-.12-.35-.11-.48.03"/>
      <path class="cls-1" d="M8.72,7.99c-.16.1-.22.31-.12.46.06.12.18.18.29.18.06,0,.12-.01.17-.05.16-.1.22-.3.13-.46-.1-.16-.31-.22-.47-.13"/>
      <path class="cls-1" d="M16.94,11.05c.05,0,.11-.01.16-.03.16-.09.23-.29.15-.46-.09-.17-.29-.24-.46-.16-.17.09-.24.29-.15.46.05.12.18.18.3.18"/>
      <path class="cls-1" d="M16.77,16.24c.05.02.1.03.16.03.12,0,.25-.07.31-.18.08-.17.01-.37-.15-.46-.17-.08-.37-.01-.46.15-.08.17-.01.37.15.46"/>
      <path class="cls-1" d="M17.07,12.05c.03.16.18.26.33.26.02,0,.05,0,.08,0,.18-.04.3-.22.25-.41-.04-.18-.23-.3-.41-.25-.18.04-.29.22-.25.41"/>
      <path class="cls-1" d="M14.96,8.46c-.12.16-.08.37.07.48h0c.06.04.13.06.2.06.1,0,.2-.05.27-.14.11-.15.08-.36-.07-.48-.15-.11-.37-.08-.48.07"/>
      <path class="cls-1" d="M17.22,13.31v.02h0c0,.2.15.35.34.35s.34-.15.34-.34h0v-.03c0-.19-.15-.34-.34-.34s-.34.15-.34.34"/>
      <path class="cls-1" d="M10.19,18.52c-.18-.06-.37.04-.42.22-.06.18.04.37.22.42.03.01.06.01.1.01.15,0,.29-.1.33-.24.06-.18-.05-.37-.22-.42"/>
      <path class="cls-1" d="M15,17.69c-.15.11-.18.33-.07.48.06.09.17.14.27.14.07,0,.14-.02.2-.07.15-.11.18-.32.07-.47-.11-.16-.33-.18-.48-.08"/>
      <path class="cls-1" d="M11.43,18.74c-.18,0-.35.13-.36.32,0,.19.13.35.32.36h.02c.18,0,.33-.14.34-.32.01-.18-.13-.35-.32-.36"/>
      <path class="cls-1" d="M12.69,18.67h0c-.19.03-.31.2-.29.39.03.17.18.29.34.29.02,0,.03,0,.05,0,.18-.03.31-.2.28-.39-.03-.18-.2-.31-.39-.27"/>
      <path class="cls-1" d="M13.91,18.31c-.17.07-.25.27-.18.45.05.13.18.21.31.21.04,0,.09,0,.13-.03.18-.08.26-.27.18-.44-.08-.18-.27-.26-.45-.18"/>
      <path class="cls-1" d="M14.21,7.68h0c-.17-.07-.37,0-.44.18-.08.17,0,.37.18.44.04.02.09.03.13.03.14,0,.26-.08.31-.21.08-.17,0-.37-.18-.45"/>
      <path class="cls-1" d="M13.3,14.31c0,.25-.2.44-.44.44h-2.01c-.24,0-.44-.2-.44-.44v-2.01c0-.24.2-.44.44-.44h2.01c.24,0,.44.2.44.44v2.01ZM14.04,14.84v-3.07c0-.36-.29-.65-.65-.65h-3.07c-.36,0-.65.29-.65.65v3.07c0,.36.29.65.65.65h3.07c.36,0,.65-.29.65-.65"/>
    </g>
  </g>
</svg>